<svg version="1.1" id="Layer_1" xmlns="http://www.w3.org/2000/svg" xmlns:xlink="http://www.w3.org/1999/xlink" x="0px" y="0px"
	 width="100%" viewBox="0 0 174 174" enable-background="new 0 0 174 174" xml:space="preserve">
<path fill="#FEFEFD" opacity="1.000000" stroke="none" 
	d="
M108.000000,175.000000 
	C72.000000,175.000000 36.500004,175.000000 1.000005,175.000000 
	C1.000003,117.000008 1.000003,59.000011 1.000002,1.000013 
	C58.999989,1.000008 116.999977,1.000008 174.999969,1.000004 
	C174.999985,58.999989 174.999985,116.999977 175.000000,174.999985 
	C152.833328,175.000000 130.666672,175.000000 108.000000,175.000000 
M23.748693,121.990555 
	C32.694489,139.600754 46.595287,151.765961 65.355530,157.523117 
	C91.299797,165.484909 114.885773,160.565826 135.968124,142.053787 
	C155.476746,123.717285 161.607605,101.154488 157.939087,75.235458 
	C133.995239,75.235458 110.910606,75.235458 87.666382,75.235458 
	C87.666382,84.870674 87.666382,94.247368 87.666382,103.986031 
	C100.970642,103.986031 113.898270,103.986031 127.594444,103.986031 
	C126.619438,106.164497 126.167892,107.979073 125.129356,109.348480 
	C121.451912,114.197563 117.573853,118.894508 113.123123,123.915611 
	C111.833351,124.673042 110.556587,125.453690 109.251839,126.184364 
	C93.738571,134.871704 78.416611,134.225372 63.504425,124.851212 
	C55.657936,119.918724 50.698269,112.451454 46.901962,103.328651 
	C46.218945,99.150940 44.879971,94.952568 45.010807,90.800499 
	C45.194614,84.967491 46.470177,79.168884 47.801949,72.897591 
	C48.344482,71.871262 48.875015,70.838379 49.431370,69.819588 
	C57.210907,55.573879 69.063957,47.710297 85.396332,46.834034 
	C96.819443,46.221165 106.868057,49.728062 115.020935,56.793373 
	C121.979523,49.813267 128.615189,43.157070 135.390991,36.360321 
	C135.032883,35.972351 134.438904,35.169498 133.694778,34.545780 
	C109.981483,14.669677 75.892784,11.989237 49.619194,28.469345 
	C38.551380,35.411633 29.299271,44.431000 23.536091,57.319107 
	C16.632072,69.838615 14.526574,83.467751 16.384920,97.305779 
	C17.481886,105.474258 21.182276,113.293114 23.748693,121.990555 
z"/>
<path fill="#D04B41" opacity="1.000000" stroke="none" 
	d="
M24.082602,56.854729 
	C29.299271,44.431000 38.551380,35.411633 49.619194,28.469345 
	C75.892784,11.989237 109.981483,14.669677 133.694778,34.545780 
	C134.438904,35.169498 135.032883,35.972351 135.390991,36.360321 
	C128.615189,43.157070 121.979523,49.813267 115.020935,56.793373 
	C106.868057,49.728062 96.819443,46.221165 85.396332,46.834034 
	C69.063957,47.710297 57.210907,55.573879 49.431370,69.819588 
	C48.875015,70.838379 48.344482,71.871262 47.257492,72.885704 
	C39.169556,67.534119 31.626080,62.194427 24.082602,56.854729 
z"/>
<path fill="#3465B7" opacity="1.000000" stroke="none" 
	d="
M113.771812,123.649109 
	C117.573853,118.894508 121.451912,114.197563 125.129356,109.348480 
	C126.167892,107.979073 126.619438,106.164497 127.594444,103.986031 
	C113.898270,103.986031 100.970642,103.986031 87.666382,103.986031 
	C87.666382,94.247368 87.666382,84.870674 87.666382,75.235458 
	C110.910606,75.235458 133.995239,75.235458 157.939087,75.235458 
	C161.607605,101.154488 155.476746,123.717285 135.450836,141.891479 
	C127.879623,135.702484 120.825714,129.675797 113.771812,123.649109 
z"/>
<path fill="#6BAD5E" opacity="1.000000" stroke="none" 
	d="
M113.447464,123.782364 
	C120.825714,129.675797 127.879623,135.702484 135.149323,142.031448 
	C114.885773,160.565826 91.299797,165.484909 65.355530,157.523117 
	C46.595287,151.765961 32.694489,139.600754 24.072083,121.478859 
	C31.911224,115.355499 39.426975,109.743835 46.942730,104.132172 
	C50.698269,112.451454 55.657936,119.918724 63.504425,124.851212 
	C78.416611,134.225372 93.738571,134.871704 109.251839,126.184364 
	C110.556587,125.453690 111.833351,124.673042 113.447464,123.782364 
z"/>
<path fill="#F0C253" opacity="1.000000" stroke="none" 
	d="
M46.922348,103.730408 
	C39.426975,109.743835 31.911224,115.355499 24.053669,121.118179 
	C21.182276,113.293114 17.481886,105.474258 16.384920,97.305779 
	C14.526574,83.467751 16.632072,69.838615 23.809345,57.086918 
	C31.626080,62.194427 39.169556,67.534119 46.995926,73.114693 
	C46.470177,79.168884 45.194614,84.967491 45.010807,90.800499 
	C44.879971,94.952568 46.218945,99.150940 46.922348,103.730408 
z"/>
</svg>